<svg width="27" height="32" viewBox="0 0 27 32" fill="none" xmlns="http://www.w3.org/2000/svg">
<path d="M12.9181 6.68125C11.3775 5.14006 10.323 2.44875 9.79969 0C9.27557 2.44925 8.22219 5.14113 6.681 6.68231C5.14038 8.22244 2.44825 9.27694 0 9.80131C2.44925 10.3246 5.14088 11.3785 6.6815 12.9198C8.22213 14.4604 9.27663 17.1523 9.80075 19.601C10.3241 17.1518 11.3783 14.4599 12.9186 12.9187C14.4593 11.3781 17.1514 10.3241 19.5996 9.79969C17.1509 9.27638 14.4593 8.22194 12.9181 6.68125Z" fill="white"/>
<path d="M22.9254 19.0213C22.0058 18.1012 21.3748 16.4925 21.0622 15.0298C20.749 16.4925 20.1201 18.1012 19.1995 19.0218C18.2789 19.9414 16.6705 20.5718 15.208 20.885C16.671 21.1982 18.2789 21.8276 19.1995 22.7482C20.1201 23.6683 20.7501 25.277 21.0633 26.7397C21.3758 25.2764 22.0058 23.6683 22.9259 22.7477C23.846 21.8276 25.4546 21.1976 26.9169 20.884C25.4547 20.5713 23.8461 19.9414 22.9254 19.0213Z" fill="white"/>
<path d="M6.60542 22.1689C6.34248 23.3969 5.81448 24.7479 5.04173 25.5206C4.26911 26.2927 2.91873 26.8218 1.69092 27.0848C2.91873 27.3483 4.26911 27.8758 5.04173 28.6489C5.81448 29.4216 6.34354 30.7714 6.60648 32.0001C6.86917 30.7714 7.39742 29.4216 8.17042 28.6484C8.94254 27.8758 10.2932 27.3472 11.5207 27.0838C10.2932 26.8213 8.94254 26.2928 8.16992 25.5201C7.39742 24.7479 6.86811 23.397 6.60542 22.1689Z" fill="white"/>
</svg>
