<svg width="38" height="42" viewBox="0 0 38 42" fill="none" xmlns="http://www.w3.org/2000/svg">
<path d="M31.9903 37.6212H5.46176C2.45014 37.6212 0 34.8084 0 31.351V13.4362C0 9.97882 2.45014 7.16602 5.46176 7.16602H31.9903C35.002 7.16602 37.4521 9.97882 37.4521 13.4362V31.351C37.4521 34.8084 35.0019 37.6212 31.9903 37.6212ZM5.46168 8.95758C3.31053 8.95758 1.56042 10.9667 1.56042 13.4363V31.3511C1.56042 33.8206 3.31053 35.8298 5.46168 35.8298H31.9902C34.1414 35.8298 35.8915 33.8206 35.8915 31.3511V13.4363C35.8915 10.9667 34.1414 8.95758 31.9902 8.95758H5.46168Z" fill="white"/>
<path d="M10.9236 41.204H6.24214C5.38168 41.204 4.68164 40.4004 4.68164 39.4125V36.7253C4.68164 36.2307 5.03096 35.8296 5.46189 35.8296H11.7039C12.1348 35.8296 12.4842 36.2307 12.4842 36.7253V39.4125C12.4842 40.4004 11.7841 41.204 10.9236 41.204ZM6.24214 37.6211V39.4125H10.9236C10.9244 39.4125 10.9247 39.4125 10.9247 39.4125L10.924 37.6211H6.24214Z" fill="white"/>
<path d="M31.9905 41.204H27.309C26.4486 41.204 25.7485 40.4004 25.7485 39.4125V36.7253C25.7485 36.2307 26.0979 35.8296 26.5288 35.8296H32.7708C33.2016 35.8296 33.551 36.2307 33.551 36.7253V39.4125C33.551 40.4004 32.851 41.204 31.9905 41.204ZM27.309 37.6211V39.4125H31.9905C31.9912 39.4125 31.9916 39.4125 31.9916 39.4125L31.9909 37.6211H27.309Z" fill="white"/>
<path d="M28.0893 8.9574H9.36326C8.93233 8.9574 8.58301 8.55637 8.58301 8.06166V6.27018C8.58301 2.8128 11.0332 0 14.0448 0H23.4078C26.4194 0 28.8695 2.8128 28.8695 6.27018V8.06166C28.8695 8.55628 28.5201 8.9574 28.0893 8.9574ZM10.1434 7.16592H27.309V6.27018C27.309 3.80062 25.5589 1.79148 23.4077 1.79148H14.0447C11.8935 1.79148 10.1434 3.80062 10.1434 6.27018V7.16592Z" fill="white"/>
<path d="M21.8473 34.0383H15.6053C15.1743 34.0383 14.825 33.6371 14.825 33.1425V26.8723H9.36326C8.93233 26.8723 8.58301 26.4712 8.58301 25.9766V18.8107C8.58301 18.316 8.93233 17.9149 9.36326 17.9149H14.825V11.6448C14.825 11.15 15.1743 10.749 15.6053 10.749H21.8473C22.2781 10.749 22.6275 11.15 22.6275 11.6448V17.9149H28.0893C28.5201 17.9149 28.8695 18.316 28.8695 18.8107V25.9766C28.8695 26.4712 28.5201 26.8723 28.0893 26.8723H22.6275V33.1425C22.6275 33.6372 22.2781 34.0383 21.8473 34.0383ZM16.3854 32.2468H21.0669V25.9766C21.0669 25.482 21.4163 25.0809 21.8472 25.0809H27.309V19.7064H21.8472C21.4163 19.7064 21.0669 19.3054 21.0669 18.8107V12.5405H16.3854V18.8107C16.3854 19.3054 16.0361 19.7064 15.6052 19.7064H10.1434V25.0809H15.6052C16.0361 25.0809 16.3854 25.482 16.3854 25.9766V32.2468Z" fill="white"/>
<path d="M18.7256 30.4553C18.2946 30.4553 17.9453 30.0542 17.9453 29.5596V15.2278C17.9453 14.7331 18.2946 14.332 18.7256 14.332C19.1565 14.332 19.5058 14.7331 19.5058 15.2278V29.5596C19.5059 30.0543 19.1565 30.4553 18.7256 30.4553Z" fill="white"/>
<path d="M24.9679 23.2895H12.4839C12.0529 23.2895 11.7036 22.8884 11.7036 22.3938C11.7036 21.8992 12.0529 21.498 12.4839 21.498H24.9679C25.3987 21.498 25.7481 21.8992 25.7481 22.3938C25.7481 22.8884 25.3987 23.2895 24.9679 23.2895Z" fill="white"/>
</svg>
