<svg width="21" height="22" viewBox="0 0 21 22" fill="none" xmlns="http://www.w3.org/2000/svg">
<path d="M8.44162 18.4091C8.44162 18.6788 8.36545 18.9425 8.22275 19.1667C8.08005 19.391 7.87722 19.5657 7.63991 19.6689C7.40261 19.7722 7.14148 19.7992 6.88956 19.7465C6.63763 19.6939 6.40623 19.5641 6.2246 19.3733C6.04297 19.1826 5.91928 18.9397 5.86917 18.6751C5.81906 18.4106 5.84478 18.1364 5.94308 17.8873C6.04137 17.6381 6.20783 17.4251 6.4214 17.2753C6.63497 17.1255 6.88606 17.0455 7.14292 17.0455C7.48736 17.0455 7.81769 17.1891 8.06124 17.4449C8.30479 17.7006 8.44162 18.0475 8.44162 18.4091ZM15.5845 17.0455C15.3276 17.0455 15.0765 17.1255 14.863 17.2753C14.6494 17.4251 14.4829 17.6381 14.3846 17.8873C14.2863 18.1364 14.2606 18.4106 14.3107 18.6751C14.3608 18.9397 14.4845 19.1826 14.6662 19.3733C14.8478 19.5641 15.0792 19.6939 15.3311 19.7465C15.583 19.7992 15.8442 19.7722 16.0815 19.6689C16.3188 19.5657 16.5216 19.391 16.6643 19.1667C16.807 18.9425 16.8832 18.6788 16.8832 18.4091C16.8832 18.0475 16.7464 17.7006 16.5028 17.4449C16.2592 17.1891 15.9289 17.0455 15.5845 17.0455ZM19.457 6.31877L17.3759 14.1835C17.2615 14.6132 17.0167 14.9919 16.6788 15.2623C16.3409 15.5327 15.9282 15.68 15.5033 15.6818H7.48058C7.05447 15.6816 6.64012 15.5351 6.30071 15.2646C5.96131 14.9941 5.71548 14.6144 5.60071 14.1835L2.75331 3.40911H1.29876C1.12655 3.40911 0.961381 3.33727 0.839604 3.20941C0.717828 3.08154 0.649414 2.90812 0.649414 2.72729C0.649414 2.54646 0.717828 2.37304 0.839604 2.24517C0.961381 2.11731 1.12655 2.04547 1.29876 2.04547H3.24682C3.38878 2.04544 3.52684 2.09427 3.63987 2.18447C3.75289 2.27466 3.83465 2.40127 3.87263 2.5449L4.64211 5.45456H18.8312C18.9313 5.45454 19.0301 5.47882 19.1198 5.52551C19.2095 5.5722 19.2877 5.64003 19.3483 5.7237C19.4088 5.80737 19.4502 5.90462 19.4691 6.00785C19.4879 6.11108 19.4838 6.21749 19.457 6.31877ZM17.9765 6.8182H5.00331L6.85477 13.8188C6.89275 13.9624 6.9745 14.089 7.08753 14.1792C7.20055 14.2694 7.33862 14.3182 7.48058 14.3182H15.5033C15.6453 14.3182 15.7833 14.2694 15.8964 14.1792C16.0094 14.089 16.0911 13.9624 16.1291 13.8188L17.9765 6.8182Z" fill="#12202D"/>
</svg>
