<svg width="28" height="28" viewBox="0 0 28 28" fill="none" xmlns="http://www.w3.org/2000/svg">
<circle cx="14" cy="14" r="14" fill="#12202D"/>
<path fill-rule="evenodd" clip-rule="evenodd" d="M14.5 22C18.6421 22 22 18.6421 22 14.5C22 10.3579 18.6421 7 14.5 7C10.3579 7 7 10.3579 7 14.5C7 18.6421 10.3579 22 14.5 22ZM14.5 10.6731C14.9142 10.6731 15.25 11.0089 15.25 11.4231V14.1807L17.0198 15.8825C17.3184 16.1696 17.3277 16.6443 17.0407 16.943C16.7535 17.2415 16.2788 17.2508 15.9802 16.9637L13.9801 15.0406C13.8331 14.8993 13.75 14.7041 13.75 14.5V11.4231C13.75 11.0089 14.0858 10.6731 14.5 10.6731Z" fill="white"/>
</svg>
