<svg width="28" height="28" viewBox="0 0 28 28" fill="none" xmlns="http://www.w3.org/2000/svg">
<circle cx="14" cy="14" r="14" fill="#12202D"/>
<path fill-rule="evenodd" clip-rule="evenodd" d="M11.0116 8C9.8849 8 8.86603 8.2816 8.12651 8.9683C7.37997 9.66153 7 10.691 7 12.0116V16.8953C7 18.216 7.37997 19.2455 8.12651 19.9387C8.86603 20.6254 9.8849 20.907 11.0116 20.907H17.9884C19.1151 20.907 20.134 20.6254 20.8735 19.9387C21.62 19.2455 22 18.216 22 16.8953V12.0116C22 10.691 21.62 9.66153 20.8735 8.9683C20.134 8.2816 19.1151 8 17.9884 8H11.0116ZM19.5431 11.9156C19.7718 11.7389 19.8139 11.4102 19.6372 11.1816C19.4605 10.9529 19.1319 10.9108 18.9032 11.0875L15.0332 14.0779C14.7191 14.3206 14.2808 14.3206 13.9667 14.0779L10.0967 11.0875C9.86802 10.9108 9.53941 10.9529 9.36271 11.1816C9.18601 11.4102 9.22814 11.7389 9.45682 11.9156L13.3269 14.906C14.0178 15.4399 14.9821 15.4399 15.6731 14.906L19.5431 11.9156Z" fill="white"/>
</svg>
