<svg width="21" height="22" viewBox="0 0 21 22" fill="none" xmlns="http://www.w3.org/2000/svg">
<path d="M14.2861 3.47729C16.5054 3.47729 18.2988 5.29843 18.2988 7.72729C18.2988 9.20607 17.67 10.6051 16.4277 12.2009C15.4892 13.4066 14.2398 14.6759 12.7275 16.1365L11.1289 17.6658L11.1279 17.6667L10.3896 18.3708L9.65332 17.6667L9.65234 17.6658L8.05371 16.1365C6.54142 14.6759 5.29207 13.4066 4.35352 12.2009C3.11123 10.6051 2.48242 9.20607 2.48242 7.72729C2.48242 5.2985 4.27497 3.4774 6.49414 3.47729C7.68072 3.47729 8.84308 4.02465 9.65234 4.91089L9.80957 5.09253L10.3906 5.80347L10.9707 5.09253C11.7821 4.09991 13.0204 3.47743 14.2861 3.47729Z" stroke="#12202D" stroke-width="1.5"/>
</svg>
