<svg width="18" height="17" viewBox="0 0 18 17" fill="none" xmlns="http://www.w3.org/2000/svg">
<path d="M12.5537 0.75C14.773 0.75 16.5664 2.57113 16.5664 5C16.5664 6.47878 15.9376 7.87779 14.6953 9.47363C13.7568 10.6793 12.5074 11.9486 10.9951 13.4092L9.39648 14.9385L9.39551 14.9395L8.65723 15.6436L7.9209 14.9395L7.91992 14.9385L6.32129 13.4092C4.809 11.9486 3.55965 10.6793 2.62109 9.47363C1.3788 7.87778 0.75 6.47878 0.75 5C0.75 2.5712 2.54254 0.750101 4.76172 0.75C5.94829 0.75 7.11065 1.29736 7.91992 2.18359L8.07715 2.36523L8.6582 3.07617L9.23828 2.36523C10.0496 1.37261 11.288 0.750131 12.5537 0.75Z" stroke="white" stroke-width="1.5"/>
</svg>
