<svg width="220" height="25" viewBox="0 0 220 25" fill="none" xmlns="http://www.w3.org/2000/svg">
<g clip-path="url(#clip0_4_49)">
<path d="M52.4722 11.2141V17.6791C50.9496 18.9134 48.3491 19.7215 45.2799 19.7215C39.5641 19.7215 35.7695 16.4449 35.7695 11.5078C35.7695 6.57079 39.5641 3.27111 45.2799 3.27111C48.1608 3.27111 50.9717 4.57255 52.332 6.52664L49.6153 9.01819C48.4914 7.42498 46.7564 6.34812 45.2819 6.34812C42.0964 6.34812 39.9868 8.41354 39.9868 11.5097C39.9868 14.606 42.0944 16.6714 45.2819 16.6714C46.8746 16.6714 48.1167 16.3355 48.7258 15.8402V14.3103L47.8122 14.3142L47.7421 11.2161H52.4742L52.4722 11.2141Z" fill="white"/>
<path d="M63.3428 3.26897C68.2853 3.26897 72.0337 6.81434 72.0337 11.5057C72.0337 16.4427 68.5658 19.7194 63.3428 19.7194C58.1198 19.7194 54.6519 16.4427 54.6519 11.5057C54.6519 6.56864 58.4003 3.26897 63.3428 3.26897ZM63.2727 16.3544C65.9673 16.3544 67.8165 14.6038 67.8165 11.5057C67.8165 8.40756 65.6608 6.70301 63.1084 6.70301C60.556 6.70301 58.8691 8.56688 58.8691 11.5057C58.8691 14.6038 60.58 16.3544 63.2727 16.3544Z" fill="white"/>
<path d="M75.4558 3.49355H79.3685V16.4446H87.6608V19.4967H75.4558V3.49355Z" fill="white"/>
<path d="M90.2151 3.49355H96.2815C102.536 3.49355 105.746 6.20969 105.746 11.5057C105.746 16.8017 102.935 19.4967 96.9847 19.4967H90.2151V3.49355ZM96.7042 16.579C99.9839 16.579 101.531 14.9397 101.531 11.5057C101.531 8.07164 99.7976 6.41124 96.4238 6.41124H94.1519V16.579H96.7062H96.7042Z" fill="white"/>
<path d="M108.885 3.49355H121.934V6.56865L112.822 6.54561V10.114H118.959L118.983 13.0547H112.822V16.4446H122.286V19.4967H108.887V3.49355H108.885Z" fill="white"/>
<path d="M140.886 3.49355V19.4967H135.335L129.244 9.77426V19.4967H125.309V3.49355H129.737L136.975 15.0472V3.49355H140.888H140.886Z" fill="white"/>
<path d="M149.86 3.49355H164.008V6.56864H158.901V19.4967H154.966V6.56672H149.86V3.49163V3.49355Z" fill="white"/>
<path d="M166.095 3.49355H171.671C176.357 3.49355 178.769 5.13283 178.769 8.29623C178.769 10.3751 177.717 11.7955 175.662 12.525L180.128 19.4967H175.63L171.533 13.1008H170.032V19.4967H166.097V3.49355H166.095ZM171.787 10.1812C173.426 10.2714 174.434 9.55352 174.434 8.31734C174.434 7.08116 173.402 6.36517 171.505 6.40932C171.05 6.42468 170.547 6.42852 170.028 6.42852V10.1793H171.785L171.787 10.1812Z" fill="white"/>
<path d="M186.617 3.49355H190.904L197.393 19.4967H193.13L192.146 17.0493L185.184 17.0704C184.83 17.9515 184.497 18.773 184.204 19.4948H179.941L186.617 3.49163V3.49355ZM191.01 14.1777L188.692 8.35573C187.979 10.1294 187.152 12.189 186.35 14.1777H191.01Z" fill="white"/>
<path d="M199.759 3.49355H203.672V19.4967H199.759V3.49355Z" fill="white"/>
<path d="M207.795 3.49355H211.708V16.4446H220V19.4967H207.795V3.49355Z" fill="white"/>
<path d="M13.0785 6.95063L9.32204 3.35342L6.80371 5.76436L10.5602 9.36348L13.0785 11.7763L15.5948 9.36348L22.8493 2.41285L20.333 0L13.0785 6.95063Z" fill="#DCB65A"/>
<path d="M18.8804 12.5115L22.6368 8.91431L20.1185 6.50146L16.364 10.0987L13.8457 12.5115L16.364 14.9244L23.6185 21.875L26.1368 19.4621L18.8804 12.5115Z" fill="#DCB65A"/>
<path d="M13.0584 18.0494L16.8149 21.6485L19.3312 19.2356L15.5768 15.6365L13.0584 13.2256L10.5401 15.6365L3.28564 22.5891L5.80397 25L13.0584 18.0494Z" fill="#DCB65A"/>
<path d="M7.25446 12.4885L3.50001 16.0876L6.01634 18.4985L9.77279 14.9013L12.2911 12.4885L9.77279 10.0756L2.51833 3.125L0 5.53785L7.25446 12.4885Z" fill="#DCB65A"/>
</g>
<defs>
<clipPath id="clip0_4_49">
<rect width="220" height="25" fill="white"/>
</clipPath>
</defs>
</svg>
