<svg width="28" height="28" viewBox="0 0 28 28" fill="none" xmlns="http://www.w3.org/2000/svg">
<circle cx="14" cy="14" r="14" fill="#12202D"/>
<path d="M16.4635 16.9816L16.0839 17.3545C16.0839 17.3545 15.1817 18.241 12.7192 15.8212C10.2568 13.4015 11.1589 12.5151 11.1589 12.5151L11.3979 12.2802C11.9867 11.7016 12.0422 10.7728 11.5285 10.0946L10.4777 8.70748C9.84189 7.86817 8.6133 7.75729 7.88454 8.47339L6.57654 9.75867C6.21519 10.1137 5.97304 10.574 6.00241 11.0846C6.07753 12.3909 6.67559 15.2015 10.0128 18.4808C13.5517 21.9582 16.8723 22.0964 18.2302 21.9713C18.6597 21.9318 19.0332 21.7156 19.3342 21.4198L20.5181 20.2566C21.3172 19.4714 21.0918 18.1252 20.0694 17.576L18.4773 16.7207C17.806 16.3601 16.9882 16.466 16.4635 16.9816Z" fill="white"/>
</svg>
