<svg width="26" height="26" viewBox="0 0 26 26" fill="none" xmlns="http://www.w3.org/2000/svg">
<path d="M17.9882 15.8388C18.0455 15.8903 18.1128 15.9305 18.1864 15.9573C18.26 15.984 18.3384 15.9966 18.4172 15.9945C18.4959 15.9924 18.5734 15.9755 18.6453 15.9449C18.7172 15.9143 18.782 15.8704 18.8361 15.8159C18.8902 15.7614 18.9325 15.6973 18.9606 15.6272C18.9887 15.5572 19.002 15.4825 18.9998 15.4076C18.9975 15.3326 18.9798 15.2588 18.9476 15.1904C18.9154 15.1219 18.8694 15.0602 18.8122 15.0087L13.4153 10.1561C13.304 10.0558 13.1566 10 13.0034 10C12.8502 10 12.7027 10.0558 12.5914 10.1561L7.19398 15.0087C7.13548 15.0598 7.08824 15.1216 7.055 15.1903C7.02176 15.259 7.0032 15.3332 7.00038 15.4088C6.99756 15.4844 7.01054 15.5598 7.03857 15.6305C7.0666 15.7013 7.10912 15.7661 7.16366 15.8211C7.2182 15.8761 7.28368 15.9202 7.35628 15.9509C7.42888 15.9816 7.50717 15.9982 7.58659 15.9999C7.66601 16.0015 7.74499 15.9881 7.81893 15.9605C7.89286 15.9328 7.96029 15.8914 8.0173 15.8388L13.0034 11.3561L17.9882 15.8388Z" fill="#12202D"/>
</svg>
