<svg width="32" height="44" viewBox="0 0 32 44" fill="none" xmlns="http://www.w3.org/2000/svg">
<path d="M3.50762 25.1772V15.7949C3.50762 15.5527 3.70384 15.3565 3.94605 15.3565H10.084C10.3262 15.3565 10.5225 15.5527 10.5225 15.7949V25.1772C10.5225 25.6615 10.915 26.0541 11.3993 26.0541C11.8836 26.0541 12.2762 25.6615 12.2762 25.1772V15.7949C12.2762 14.5842 11.2948 13.6028 10.084 13.6028H3.94605C2.73532 13.6028 1.75391 14.5842 1.75391 15.7949V25.1772C1.75391 25.6615 2.14648 26.0541 2.63076 26.0541C3.11504 26.0541 3.50762 25.6615 3.50762 25.1772ZM28.2862 20.1793L28.7248 14.0413H22.1488L22.5874 20.1793H28.2862ZM29.9929 20.8999C29.9506 21.4793 29.4637 21.933 28.8833 21.933H21.9903C21.4095 21.933 20.9208 21.4783 20.8807 20.8999L20.3481 13.4466C20.3022 12.8179 20.7965 12.2876 21.426 12.2876H29.4475C30.077 12.2876 30.5714 12.8179 30.5256 13.4453L29.9929 20.8999Z" fill="white"/>
<path d="M11.8376 42.0567C12.0798 42.0567 12.276 41.8604 12.276 41.6182V27.1501C12.276 26.9079 12.0798 26.7117 11.8376 26.7117H2.63057C2.14637 26.7117 1.75371 27.1043 1.75371 27.5885V41.6182C1.75371 41.8604 1.94993 42.0567 2.19214 42.0567H11.8376ZM11.8376 43.8104H2.19214C0.98141 43.8104 0 42.829 0 41.6182V27.5885C0 26.1358 1.1778 24.958 2.63057 24.958H11.8376C13.0483 24.958 14.0297 25.9394 14.0297 27.1501V41.6182C14.0297 42.829 13.0483 43.8104 11.8376 43.8104ZM28.2348 21.056V41.1798C28.2348 41.664 27.8421 42.0567 27.3579 42.0567H23.4997C23.0155 42.0567 22.6229 41.664 22.6229 41.1798V20.6175C22.6229 20.1333 22.2303 19.7407 21.746 19.7407C21.2617 19.7407 20.8692 20.1333 20.8692 20.6175V41.1798C20.8692 42.6326 22.047 43.8104 23.4997 43.8104H27.3579C28.8107 43.8104 29.9885 42.6326 29.9885 41.1798V21.056C29.9885 20.5717 29.5959 20.1791 29.1116 20.1791C28.6273 20.1791 28.2348 20.5717 28.2348 21.056ZM8.33013 14.4796H10.0838V1.67746C10.0838 0.272645 8.83287 -0.43569 7.62839 0.286688L5.49919 1.56438C4.61518 2.09456 3.94589 3.27665 3.94589 4.30802V14.4796H5.6996V4.30802C5.6996 3.89272 6.0456 3.28157 6.40135 3.06822L8.33017 1.9108L8.33013 14.4796ZM20.6675 1.76514H30.1918L28.7672 13.497C28.7089 13.9777 29.0513 14.4148 29.532 14.4731C30.0127 14.5315 30.4498 14.1891 30.5082 13.7084L32.0052 1.37972V1.32667C32.0052 0.600395 31.4162 0.0113863 30.6899 0.0113863H20.1676C19.4414 0.0113863 18.8524 0.600395 18.8524 1.32667V1.38109L20.3936 13.7549C20.4534 14.2355 20.8915 14.5765 21.3721 14.5167C21.8526 14.4568 22.1937 14.0187 22.1338 13.5382L20.6675 1.76514Z" fill="white"/>
</svg>
