<svg width="51" height="51" viewBox="0 0 51 51" fill="none" xmlns="http://www.w3.org/2000/svg">
<path d="M25.5356 0.000709391C25.3432 -0.00702857 25.1536 0.0487199 24.9961 0.158986C16.3964 6.17876 7.84084 7.03451 0.879489 7.03451C0.393756 7.03451 0 7.42827 0 7.91383C0 7.95744 0.00316553 8.00105 0.00967245 8.04432C1.3304 16.8487 3.0841 27.4562 6.77757 35.9625C8.6243 40.2158 10.9603 43.9549 14.0229 46.6581C17.0856 49.3613 20.8983 51 25.5001 51C30.1019 51 33.9144 49.3613 36.9772 46.6581C40.0401 43.9549 42.3759 40.2156 44.2226 35.9625C47.9161 27.4562 49.6699 16.8487 50.9905 8.04432C51.0626 7.56403 50.7316 7.11629 50.2514 7.04419C50.2081 7.03768 50.1645 7.03451 50.1209 7.03451C43.2328 7.03451 34.5978 5.31247 25.9524 0.125396C25.8261 0.0495992 25.6828 0.00668872 25.5356 0.000709391ZM25.5425 1.90601C33.9047 6.80079 42.2294 8.60198 49.0954 8.76096C47.7928 17.3424 46.0435 27.3542 42.6098 35.2619C40.8293 39.3621 38.6038 42.8773 35.8136 45.34C33.0233 47.8028 29.6916 49.2417 25.5001 49.2417C21.3086 49.2417 17.9769 47.8028 15.1866 45.34C12.3964 42.8773 10.1708 39.3623 8.39041 35.2619C4.9588 27.3579 3.20949 17.3526 1.90705 8.77397C8.72543 8.68586 17.1285 7.62348 25.5425 1.90601ZM25.5003 14.0745C22.573 14.0745 19.6458 15.1889 17.4174 17.4173C12.9607 21.874 12.9607 29.1266 17.4174 33.5833C21.8741 38.04 29.1267 38.04 33.5834 33.5833C38.0401 29.1266 38.0401 21.874 33.5834 17.4173C31.3549 15.1889 28.4275 14.0745 25.5003 14.0745ZM25.5003 15.8222C27.6996 15.8222 29.8977 16.5722 31.6885 18.0681L18.0685 31.6885C14.8898 27.8837 15.086 22.2356 18.661 18.6606C20.5531 16.7683 23.0266 15.8222 25.5003 15.8222ZM32.932 19.312C36.1106 23.1168 35.9145 28.7646 32.3396 32.3396C28.7646 35.9145 23.1168 36.1106 19.312 32.932L32.932 19.312Z" fill="white"/>
</svg>
